<?xml version="1.0" encoding="UTF-8"?><svg id="a" xmlns="http://www.w3.org/2000/svg" viewBox="0 0 255.12 245.39"><defs><style>.b{fill:#1d1d1b;}.c{fill:#646363;}</style></defs><path class="b" d="m146.74,245.39l7.8-48.91h10.45l-7.73,48.91h-10.51Z"/><path class="b" d="m164.99,245.39l1.76-10.79h19.47c1.13-.14,1.79-.59,1.97-1.36l.2-1.15.47-3.32.14-.88c0-1.18-.86-1.76-2.58-1.76h-7.87l1.56-10.38h7.94c1.85,0,2.96-.88,3.32-2.65l.47-3.26.27-1.22c-.05-.14-.11-.27-.2-.41-.09-.14-.23-.32-.41-.54l-.95-.41h-19.54l1.7-10.79h20.89c2.08,0,3.48.11,4.21.34,1.27.27,2.42,1.04,3.46,2.31,1.27,1.49,1.9,3.12,1.9,4.88l-.07,1.56-1.29,7.87c-.14.95-.5,1.9-1.09,2.85-1.09,1.81-2.92,3.37-5.49,4.68,1.09.54,1.88,1.06,2.37,1.56,1.27,1.18,1.9,2.78,1.9,4.82l-.07,1.09-1.29,7.87c-.41,2.67-1.67,4.84-3.8,6.51-1.45,1.13-2.78,1.88-4,2.24-.77.18-1.57.28-2.41.31-.84.02-1.5.03-2,.03h-20.96Z"/><polygon class="c" points="66.94 186.29 128.99 113.47 255.12 220.94 127.56 0 0 220.94 130.32 197.96 66.94 186.29"/></svg>